<mxfile host="app.diagrams.net" modified="2021-03-06T08:27:56.371Z" agent="5.0 (Windows NT 10.0; Win64; x64) AppleWebKit/537.36 (KHTML, like Gecko) Chrome/88.0.4324.182 Safari/537.36 Edg/88.0.705.81" etag="ejippNZ-3Qg6K7Jb8UIz" version="14.4.4" type="github">
  <diagram id="n9ovLxcw3zuIWNUtssga" name="第 1 页">
    <mxGraphModel dx="1695" dy="460" grid="1" gridSize="10" guides="1" tooltips="1" connect="1" arrows="1" fold="1" page="1" pageScale="1" pageWidth="827" pageHeight="1169" math="0" shadow="0">
      <root>
        <mxCell id="0" />
        <mxCell id="1" parent="0" />
        <mxCell id="gfW-SAQj4NvjW1fnt4sh-61" value="" style="rounded=0;whiteSpace=wrap;html=1;align=left;fillColor=#f9f7ed;strokeColor=#36393d;" parent="1" vertex="1">
          <mxGeometry x="460" y="380" width="340" height="670" as="geometry" />
        </mxCell>
        <mxCell id="gfW-SAQj4NvjW1fnt4sh-54" value="" style="group" parent="1" vertex="1" connectable="0">
          <mxGeometry x="-280" y="240" width="720" height="810" as="geometry" />
        </mxCell>
        <mxCell id="gfW-SAQj4NvjW1fnt4sh-2" value=".class文件" style="rounded=0;whiteSpace=wrap;html=1;fillColor=#d5e8d4;strokeColor=#82b366;" parent="gfW-SAQj4NvjW1fnt4sh-54" vertex="1">
          <mxGeometry x="130" width="90" height="40" as="geometry" />
        </mxCell>
        <mxCell id="gfW-SAQj4NvjW1fnt4sh-3" value="" style="rounded=0;whiteSpace=wrap;html=1;fillColor=#cce5ff;strokeColor=#36393d;" parent="gfW-SAQj4NvjW1fnt4sh-54" vertex="1">
          <mxGeometry y="140" width="720" height="670" as="geometry" />
        </mxCell>
        <mxCell id="gfW-SAQj4NvjW1fnt4sh-4" value="类加载器" style="rounded=0;whiteSpace=wrap;html=1;fillColor=#dae8fc;strokeColor=#6c8ebf;" parent="gfW-SAQj4NvjW1fnt4sh-54" vertex="1">
          <mxGeometry x="122.5" y="110" width="105" height="60" as="geometry" />
        </mxCell>
        <mxCell id="gfW-SAQj4NvjW1fnt4sh-5" value="类加载" style="edgeStyle=orthogonalEdgeStyle;rounded=0;orthogonalLoop=1;jettySize=auto;html=1;entryX=0.5;entryY=0;entryDx=0;entryDy=0;" parent="gfW-SAQj4NvjW1fnt4sh-54" source="gfW-SAQj4NvjW1fnt4sh-2" target="gfW-SAQj4NvjW1fnt4sh-4" edge="1">
          <mxGeometry relative="1" as="geometry" />
        </mxCell>
        <mxCell id="gfW-SAQj4NvjW1fnt4sh-6" value="方法区&lt;br&gt;&lt;br&gt;加载各种类" style="rounded=0;whiteSpace=wrap;html=1;fillColor=#f8cecc;strokeColor=#b85450;" parent="gfW-SAQj4NvjW1fnt4sh-54" vertex="1">
          <mxGeometry x="96.25" y="210" width="157.5" height="60" as="geometry" />
        </mxCell>
        <mxCell id="gfW-SAQj4NvjW1fnt4sh-9" style="edgeStyle=orthogonalEdgeStyle;rounded=0;orthogonalLoop=1;jettySize=auto;html=1;" parent="gfW-SAQj4NvjW1fnt4sh-54" source="gfW-SAQj4NvjW1fnt4sh-4" target="gfW-SAQj4NvjW1fnt4sh-6" edge="1">
          <mxGeometry relative="1" as="geometry" />
        </mxCell>
        <mxCell id="gfW-SAQj4NvjW1fnt4sh-11" value="字节码执行引擎" style="rounded=0;whiteSpace=wrap;html=1;fillColor=#f5f5f5;strokeColor=#666666;fontColor=#333333;" parent="gfW-SAQj4NvjW1fnt4sh-54" vertex="1">
          <mxGeometry x="112.5" y="325" width="125" height="40" as="geometry" />
        </mxCell>
        <mxCell id="gfW-SAQj4NvjW1fnt4sh-12" value="执行字节码指令" style="edgeStyle=orthogonalEdgeStyle;rounded=0;orthogonalLoop=1;jettySize=auto;html=1;" parent="gfW-SAQj4NvjW1fnt4sh-54" source="gfW-SAQj4NvjW1fnt4sh-6" target="gfW-SAQj4NvjW1fnt4sh-11" edge="1">
          <mxGeometry relative="1" as="geometry" />
        </mxCell>
        <mxCell id="gfW-SAQj4NvjW1fnt4sh-20" value="线程" style="rounded=0;whiteSpace=wrap;html=1;fillColor=#ffe6cc;strokeColor=#d79b00;" parent="gfW-SAQj4NvjW1fnt4sh-54" vertex="1">
          <mxGeometry x="336.08" y="362.5" width="100" height="55" as="geometry" />
        </mxCell>
        <mxCell id="gfW-SAQj4NvjW1fnt4sh-44" value="" style="group;align=left;" parent="gfW-SAQj4NvjW1fnt4sh-54" vertex="1" connectable="0">
          <mxGeometry x="150" y="590" width="186.08000000000004" height="160" as="geometry" />
        </mxCell>
        <mxCell id="gfW-SAQj4NvjW1fnt4sh-29" value="" style="rounded=0;whiteSpace=wrap;html=1;fillColor=#fad9d5;strokeColor=#ae4132;" parent="gfW-SAQj4NvjW1fnt4sh-44" vertex="1">
          <mxGeometry width="186.08" height="160" as="geometry" />
        </mxCell>
        <mxCell id="gfW-SAQj4NvjW1fnt4sh-33" value="JVM虚拟机栈" style="rounded=0;whiteSpace=wrap;html=1;fillColor=#b0e3e6;strokeColor=#0e8088;" parent="gfW-SAQj4NvjW1fnt4sh-44" vertex="1">
          <mxGeometry x="106.07999999999998" width="80" height="20" as="geometry" />
        </mxCell>
        <mxCell id="gfW-SAQj4NvjW1fnt4sh-36" value="方法：main()&lt;br&gt;局部变量:：name" style="rounded=0;whiteSpace=wrap;html=1;fillColor=#bac8d3;strokeColor=#23445d;" parent="gfW-SAQj4NvjW1fnt4sh-44" vertex="1">
          <mxGeometry x="29.38144329896906" y="40" width="127.31958762886597" height="45" as="geometry" />
        </mxCell>
        <mxCell id="gfW-SAQj4NvjW1fnt4sh-38" value="栈帧" style="rounded=0;whiteSpace=wrap;html=1;fillColor=#b1ddf0;strokeColor=#10739e;" parent="gfW-SAQj4NvjW1fnt4sh-44" vertex="1">
          <mxGeometry x="127.31958762886597" y="40" width="29.38144329896907" height="20" as="geometry" />
        </mxCell>
        <mxCell id="gfW-SAQj4NvjW1fnt4sh-39" value="方法：print()&lt;br&gt;局部变量：person" style="rounded=0;whiteSpace=wrap;html=1;fillColor=#bac8d3;strokeColor=#23445d;" parent="gfW-SAQj4NvjW1fnt4sh-44" vertex="1">
          <mxGeometry x="29.38144329896906" y="100" width="127.31958762886597" height="45" as="geometry" />
        </mxCell>
        <mxCell id="gfW-SAQj4NvjW1fnt4sh-42" value="栈帧" style="rounded=0;whiteSpace=wrap;html=1;fillColor=#b1ddf0;strokeColor=#10739e;" parent="gfW-SAQj4NvjW1fnt4sh-44" vertex="1">
          <mxGeometry x="127.31958762886597" y="100" width="29.38144329896907" height="20" as="geometry" />
        </mxCell>
        <mxCell id="gfW-SAQj4NvjW1fnt4sh-46" value="" style="rounded=0;whiteSpace=wrap;html=1;fillColor=#b0e3e6;strokeColor=#0e8088;" parent="gfW-SAQj4NvjW1fnt4sh-54" vertex="1">
          <mxGeometry x="415" y="640" width="210" height="137.5" as="geometry" />
        </mxCell>
        <mxCell id="gfW-SAQj4NvjW1fnt4sh-47" value="Persion对象实例" style="rounded=0;whiteSpace=wrap;html=1;align=center;fillColor=#dae8fc;strokeColor=#6c8ebf;" parent="gfW-SAQj4NvjW1fnt4sh-54" vertex="1">
          <mxGeometry x="460" y="682.5" width="120" height="60" as="geometry" />
        </mxCell>
        <mxCell id="gfW-SAQj4NvjW1fnt4sh-48" style="edgeStyle=orthogonalEdgeStyle;rounded=0;orthogonalLoop=1;jettySize=auto;html=1;" parent="gfW-SAQj4NvjW1fnt4sh-54" source="gfW-SAQj4NvjW1fnt4sh-39" target="gfW-SAQj4NvjW1fnt4sh-47" edge="1">
          <mxGeometry relative="1" as="geometry" />
        </mxCell>
        <mxCell id="gfW-SAQj4NvjW1fnt4sh-49" value="堆内存" style="rounded=0;whiteSpace=wrap;html=1;align=center;fillColor=#d0cee2;strokeColor=#56517e;" parent="gfW-SAQj4NvjW1fnt4sh-54" vertex="1">
          <mxGeometry x="575" y="640" width="50" height="30" as="geometry" />
        </mxCell>
        <mxCell id="gfW-SAQj4NvjW1fnt4sh-50" value="JVM虚拟机" style="rounded=0;whiteSpace=wrap;html=1;align=center;fontStyle=1;fillColor=#b0e3e6;strokeColor=#0e8088;" parent="gfW-SAQj4NvjW1fnt4sh-54" vertex="1">
          <mxGeometry x="630" y="140" width="90" height="50" as="geometry" />
        </mxCell>
        <mxCell id="gfW-SAQj4NvjW1fnt4sh-13" value="程序计数器" style="rounded=0;whiteSpace=wrap;html=1;fillColor=#e1d5e7;strokeColor=#9673a6;" parent="gfW-SAQj4NvjW1fnt4sh-54" vertex="1">
          <mxGeometry x="288" y="370" width="66" height="40" as="geometry" />
        </mxCell>
        <mxCell id="gfW-SAQj4NvjW1fnt4sh-16" value="" style="edgeStyle=orthogonalEdgeStyle;rounded=0;orthogonalLoop=1;jettySize=auto;html=1;entryX=0;entryY=0.5;entryDx=0;entryDy=0;exitX=0.5;exitY=1;exitDx=0;exitDy=0;" parent="gfW-SAQj4NvjW1fnt4sh-54" source="gfW-SAQj4NvjW1fnt4sh-11" target="gfW-SAQj4NvjW1fnt4sh-13" edge="1">
          <mxGeometry relative="1" as="geometry" />
        </mxCell>
        <mxCell id="gfW-SAQj4NvjW1fnt4sh-51" value="线程" style="rounded=0;whiteSpace=wrap;html=1;fillColor=#ffe6cc;strokeColor=#d79b00;" parent="gfW-SAQj4NvjW1fnt4sh-54" vertex="1">
          <mxGeometry x="336.08" y="422.5" width="100" height="55" as="geometry" />
        </mxCell>
        <mxCell id="gfW-SAQj4NvjW1fnt4sh-14" value="程序计数器" style="rounded=0;whiteSpace=wrap;html=1;fillColor=#e1d5e7;strokeColor=#9673a6;" parent="gfW-SAQj4NvjW1fnt4sh-54" vertex="1">
          <mxGeometry x="288" y="430" width="66" height="40" as="geometry" />
        </mxCell>
        <mxCell id="gfW-SAQj4NvjW1fnt4sh-17" value="记录指令位置" style="edgeStyle=orthogonalEdgeStyle;rounded=0;orthogonalLoop=1;jettySize=auto;html=1;entryX=0;entryY=0.5;entryDx=0;entryDy=0;exitX=0.5;exitY=1;exitDx=0;exitDy=0;" parent="gfW-SAQj4NvjW1fnt4sh-54" source="gfW-SAQj4NvjW1fnt4sh-11" target="gfW-SAQj4NvjW1fnt4sh-14" edge="1">
          <mxGeometry relative="1" as="geometry" />
        </mxCell>
        <mxCell id="gfW-SAQj4NvjW1fnt4sh-53" style="edgeStyle=orthogonalEdgeStyle;rounded=0;orthogonalLoop=1;jettySize=auto;html=1;" parent="gfW-SAQj4NvjW1fnt4sh-54" source="gfW-SAQj4NvjW1fnt4sh-52" target="gfW-SAQj4NvjW1fnt4sh-29" edge="1">
          <mxGeometry relative="1" as="geometry" />
        </mxCell>
        <mxCell id="gfW-SAQj4NvjW1fnt4sh-52" value="线程" style="rounded=0;whiteSpace=wrap;html=1;fillColor=#ffe6cc;strokeColor=#d79b00;" parent="gfW-SAQj4NvjW1fnt4sh-54" vertex="1">
          <mxGeometry x="336.08" y="482.5" width="100" height="55" as="geometry" />
        </mxCell>
        <mxCell id="gfW-SAQj4NvjW1fnt4sh-15" value="程序计数器" style="rounded=0;whiteSpace=wrap;html=1;fillColor=#e1d5e7;strokeColor=#9673a6;" parent="gfW-SAQj4NvjW1fnt4sh-54" vertex="1">
          <mxGeometry x="288" y="490" width="66" height="40" as="geometry" />
        </mxCell>
        <mxCell id="gfW-SAQj4NvjW1fnt4sh-18" style="edgeStyle=orthogonalEdgeStyle;rounded=0;orthogonalLoop=1;jettySize=auto;html=1;entryX=0;entryY=0.5;entryDx=0;entryDy=0;exitX=0.5;exitY=1;exitDx=0;exitDy=0;" parent="gfW-SAQj4NvjW1fnt4sh-54" source="gfW-SAQj4NvjW1fnt4sh-11" target="gfW-SAQj4NvjW1fnt4sh-15" edge="1">
          <mxGeometry relative="1" as="geometry" />
        </mxCell>
        <mxCell id="gfW-SAQj4NvjW1fnt4sh-55" value="方法区（元数据空间）：&lt;br&gt;&lt;br&gt;&lt;div style=&quot;text-align: left&quot;&gt;&lt;span&gt;class字节码文件被加载到内存后，类加载器会读取字节码中的class类信息，并存放到方法区&lt;/span&gt;&lt;/div&gt;" style="text;html=1;strokeColor=none;fillColor=none;align=center;verticalAlign=middle;whiteSpace=wrap;rounded=0;fontStyle=0" parent="1" vertex="1">
          <mxGeometry x="500" y="380" width="260" height="100" as="geometry" />
        </mxCell>
        <mxCell id="gfW-SAQj4NvjW1fnt4sh-56" value="字节码执行引擎：&lt;br&gt;字节码引擎负责执行字节码指令" style="text;html=1;strokeColor=none;fillColor=none;align=center;verticalAlign=middle;whiteSpace=wrap;rounded=0;fontStyle=0" parent="1" vertex="1">
          <mxGeometry x="500" y="500" width="260" height="70" as="geometry" />
        </mxCell>
        <mxCell id="gfW-SAQj4NvjW1fnt4sh-57" value="程序计数器：&lt;br&gt;当字节码引擎需要执行字节码指令的时候，需要开启一个线程，该线程需要关联一个程序计数器，程序计数器负责记录指令执行的位置" style="text;html=1;strokeColor=none;fillColor=none;align=center;verticalAlign=middle;whiteSpace=wrap;rounded=0;fontStyle=0" parent="1" vertex="1">
          <mxGeometry x="500" y="590" width="260" height="70" as="geometry" />
        </mxCell>
        <mxCell id="gfW-SAQj4NvjW1fnt4sh-58" value="JVM虚拟机栈：&lt;br&gt;当程序在执行时，jvm会为每个线程分配一个虚拟机栈，然后针对每个方法创建对应的栈帧，把这个栈帧压入虚拟机栈中" style="text;html=1;strokeColor=none;fillColor=none;align=center;verticalAlign=middle;whiteSpace=wrap;rounded=0;fontStyle=0" parent="1" vertex="1">
          <mxGeometry x="500" y="720" width="260" height="70" as="geometry" />
        </mxCell>
        <mxCell id="gfW-SAQj4NvjW1fnt4sh-59" value="栈帧：&lt;br&gt;&lt;div style=&quot;text-align: left&quot;&gt;&lt;span&gt;1、每个方法都会创建自己的栈帧，并压入jvm虚拟机栈中。&lt;/span&gt;&lt;/div&gt;&lt;div style=&quot;text-align: left&quot;&gt;&lt;span&gt;2、栈帧会保存当前需要执行的方法，以及方法中的局部变量。&lt;/span&gt;&lt;/div&gt;" style="text;html=1;strokeColor=none;fillColor=none;align=center;verticalAlign=middle;whiteSpace=wrap;rounded=0;fontStyle=0" parent="1" vertex="1">
          <mxGeometry x="500" y="840" width="260" height="70" as="geometry" />
        </mxCell>
        <mxCell id="gfW-SAQj4NvjW1fnt4sh-60" value="Java堆内存：&lt;br&gt;如果一个方法的栈帧中有引用变量，此时会通过类加载机制创建实例，并把实例放入堆内存中；同时，把栈帧中对应的变量指向堆内存中实例的引用地址。" style="text;html=1;strokeColor=none;fillColor=none;align=center;verticalAlign=middle;whiteSpace=wrap;rounded=0;fontStyle=0" parent="1" vertex="1">
          <mxGeometry x="500" y="950" width="260" height="70" as="geometry" />
        </mxCell>
      </root>
    </mxGraphModel>
  </diagram>
</mxfile>
